<?xml version="1.0" encoding="UTF-8" standalone="no"?>
<!DOCTYPE svg PUBLIC "-//W3C//DTD SVG 1.1//EN" "http://www.w3.org/Graphics/SVG/1.1/DTD/svg11.dtd">
<svg version="1.1" xmlns="http://www.w3.org/2000/svg" xmlns:xlink="http://www.w3.org/1999/xlink" preserveAspectRatio="xMidYMid meet" viewBox="0 0 640 640" width="640" height="640"><defs><path d="M333.55 299.46C337.41 303.41 337.32 309.74 333.37 313.6C304.7 341.52 239.85 404.67 214.68 429.19C201.07 442.44 179.29 442.15 166.03 428.54C164.84 427.32 170.83 433.47 166.03 428.54C162.74 425.16 162.81 419.76 166.19 416.47C195.07 388.35 274.74 310.75 303.41 282.84C307.37 278.98 313.7 279.07 317.55 283.02C322.15 287.74 328.96 294.74 333.55 299.46Z" id="kaD9AiuU"></path><path d="M319.45 299.46C315.6 303.41 315.68 309.74 319.64 313.6C348.3 341.52 412.32 403.86 437.28 428.16C451.47 441.98 474.17 441.68 487.99 427.49C488.98 426.48 482.99 432.63 487.99 427.49C490.72 424.69 490.66 420.22 487.86 417.49C458.78 389.17 378.26 310.75 349.59 282.84C345.64 278.98 339.31 279.07 335.45 283.02C330.86 287.74 324.05 294.74 319.45 299.46Z" id="d10Zmv6GNh"></path><path d="M338.22 279.62C348.77 279.62 357.32 288.18 357.32 298.73C357.32 304.83 357.32 305.7 357.32 312.22C357.32 321.63 349.69 329.27 340.27 329.27C331.68 329.27 322.96 329.27 314.37 329.27C304.95 329.27 297.32 321.63 297.32 312.22C297.32 305.7 297.32 301.74 297.32 294.86C297.32 286.44 304.14 279.62 312.55 279.62C321.51 279.62 330.04 279.62 338.22 279.62Z" id="czhS28HUo"></path><path d="M344.59 385.35C350.19 386.05 354.31 390.94 354.05 396.58C353.56 407.26 352.35 433.46 351.81 445.18C351.69 447.88 349.46 450 346.76 450C337.73 450 322.07 450 314.69 450C307.46 450 301.59 444.13 301.59 436.89C301.59 425.52 301.59 402.83 301.59 391.04C301.59 385.17 306.72 380.64 312.54 381.36C320.93 382.41 335.99 384.28 344.59 385.35Z" id="b147OkVG6e"></path><path d="M437.82 296.12C444.61 296.58 449.81 302.34 449.57 309.14C448.98 326.17 447.55 366.83 446.94 384.3C446.74 389.88 442.17 394.29 436.59 394.29C430.59 394.29 422.59 394.29 416.59 394.29C411.06 394.29 406.59 389.82 406.59 384.29C406.59 366.24 406.59 323.73 406.59 306.09C406.59 299.55 412.11 294.39 418.63 294.83C424.9 295.25 431.57 295.7 437.82 296.12Z" id="a9X1Bvk1P"></path></defs><g><g><g><use xlink:href="#kaD9AiuU" opacity="1" fill="#c80000" fill-opacity="1"></use></g><g><use xlink:href="#d10Zmv6GNh" opacity="1" fill="#c80000" fill-opacity="1"></use></g><g><use xlink:href="#czhS28HUo" opacity="1" fill="#c80000" fill-opacity="1"></use></g><g><use xlink:href="#b147OkVG6e" opacity="1" fill="#c80000" fill-opacity="1"></use></g><g><use xlink:href="#a9X1Bvk1P" opacity="1" fill="#c80000" fill-opacity="1"></use></g></g></g></svg>