<?xml version="1.0" encoding="UTF-8" standalone="no"?>
<!DOCTYPE svg PUBLIC "-//W3C//DTD SVG 1.1//EN" "http://www.w3.org/Graphics/SVG/1.1/DTD/svg11.dtd">
<svg version="1.1" xmlns="http://www.w3.org/2000/svg" xmlns:xlink="http://www.w3.org/1999/xlink" preserveAspectRatio="xMidYMid meet" viewBox="72.57631470264037 153.7267582771345 480.9855071308816 315.5649043061172" width="400.99" height="235.56"><defs><path d="M294.65 332.41L295.18 332.47L334.63 337.75L335.14 337.83L335.65 337.92L336.15 338.04L336.64 338.17L337.13 338.32L337.6 338.49L338.07 338.68L338.52 338.88L338.97 339.1L339.41 339.33L339.84 339.58L340.26 339.84L340.66 340.12L341.06 340.41L341.44 340.71L341.82 341.03L342.18 341.36L342.52 341.71L342.86 342.06L343.18 342.43L343.49 342.81L343.78 343.2L344.07 343.6L344.33 344.01L344.58 344.43L344.82 344.86L345.04 345.3L345.25 345.75L345.44 346.2L345.61 346.67L345.77 347.14L345.91 347.62L346.03 348.1L346.13 348.59L346.22 349.09L346.29 349.59L346.34 350.1L346.37 350.61L346.38 351.13L346.37 351.65L343.95 421.09L343.94 421.34L343.91 421.58L343.88 421.82L343.84 422.06L343.79 422.3L343.73 422.53L343.66 422.76L343.59 422.98L343.5 423.2L343.41 423.41L343.31 423.63L343.2 423.83L343.09 424.04L342.96 424.23L342.83 424.42L342.7 424.61L342.55 424.79L342.4 424.97L342.25 425.14L342.08 425.3L341.92 425.46L341.74 425.61L341.56 425.76L341.38 425.9L341.18 426.03L340.99 426.15L340.79 426.27L340.58 426.38L340.37 426.48L340.16 426.57L339.94 426.66L339.72 426.74L339.49 426.81L339.26 426.87L339.03 426.92L338.79 426.97L338.55 427L338.31 427.03L338.07 427.04L337.82 427.05L298.44 427.29L297.78 427.28L297.12 427.25L296.47 427.18L295.83 427.1L295.19 426.98L294.57 426.85L293.95 426.69L293.35 426.5L292.75 426.3L292.17 426.07L291.59 425.81L291.03 425.54L290.48 425.25L289.95 424.93L289.43 424.6L288.92 424.25L288.42 423.87L287.94 423.48L287.48 423.07L287.03 422.65L286.6 422.21L286.19 421.75L285.79 421.27L285.41 420.78L285.05 420.28L284.71 419.76L284.39 419.23L284.09 418.68L283.81 418.12L283.55 417.55L283.31 416.97L283.1 416.38L282.91 415.78L282.74 415.16L282.59 414.54L282.47 413.91L282.38 413.27L282.31 412.62L282.27 411.96L282.25 411.3L281.83 344.22L281.84 343.69L281.87 343.16L281.93 342.64L282.01 342.13L282.1 341.63L282.22 341.13L282.36 340.64L282.52 340.16L282.7 339.69L282.9 339.23L283.12 338.79L283.36 338.35L283.61 337.92L283.88 337.51L284.17 337.11L284.47 336.72L284.79 336.35L285.12 335.99L285.47 335.64L285.83 335.31L286.21 334.99L286.59 334.69L286.99 334.4L287.4 334.14L287.83 333.88L288.26 333.65L288.71 333.44L289.16 333.24L289.62 333.06L290.1 332.9L290.58 332.76L291.06 332.64L291.56 332.54L292.06 332.47L292.57 332.41L293.08 332.38L293.6 332.36L294.12 332.38L294.65 332.41ZM325.1 191.8L326.17 191.9L327.22 192.05L328.26 192.23L329.28 192.45L329.44 192.49L329.7 192.45L330.18 192.39L330.65 192.35L331.13 192.34L331.6 192.34L332.08 192.36L332.56 192.4L333.03 192.45L333.5 192.53L333.97 192.63L334.44 192.75L334.9 192.89L335.36 193.04L335.81 193.22L336.25 193.41L336.69 193.63L337.12 193.87L337.54 194.12L337.96 194.39L338.36 194.69L338.76 195L339.14 195.34L339.51 195.69L339.87 196.06L410.33 272.32L410.04 225.9L410.05 225.3L410.09 224.71L410.14 224.13L410.23 223.55L410.33 222.99L410.46 222.43L410.61 221.88L410.79 221.34L410.98 220.81L411.2 220.29L411.43 219.78L411.69 219.29L411.96 218.8L412.26 218.33L412.57 217.87L412.9 217.43L413.24 217L413.61 216.58L413.99 216.18L414.38 215.79L414.79 215.42L415.21 215.07L415.65 214.73L416.1 214.42L416.57 214.12L417.05 213.83L417.54 213.57L418.04 213.33L418.55 213.1L419.07 212.9L419.6 212.72L420.14 212.56L420.69 212.42L421.25 212.3L421.81 212.21L422.39 212.14L422.97 212.09L423.55 212.07L424.14 212.08L424.74 212.11L448.33 213.75L448.95 213.81L449.57 213.88L450.18 213.99L450.78 214.11L451.37 214.26L451.95 214.43L452.52 214.62L453.08 214.84L453.63 215.07L454.17 215.32L454.69 215.59L455.21 215.88L455.71 216.19L456.2 216.52L456.67 216.87L457.14 217.23L457.58 217.61L458.02 218L458.43 218.41L458.84 218.84L459.22 219.28L459.59 219.73L459.94 220.2L460.28 220.68L460.59 221.18L460.89 221.68L461.17 222.2L461.43 222.73L461.68 223.27L461.9 223.82L462.1 224.38L462.28 224.95L462.44 225.53L462.57 226.11L462.69 226.71L462.78 227.31L462.85 227.92L462.89 228.53L462.91 229.15L462.91 229.78L460.49 326.61L510.81 381.06L511.07 381.36L511.32 381.66L511.55 381.97L511.77 382.28L511.98 382.6L512.18 382.93L512.36 383.26L512.53 383.6L512.69 383.94L512.84 384.29L512.97 384.64L513.09 384.99L513.19 385.35L513.28 385.71L513.36 386.07L513.43 386.44L513.48 386.8L513.52 387.17L513.55 387.54L513.56 387.91L513.56 388.28L513.55 388.65L513.52 389.02L513.48 389.39L513.43 389.75L513.37 390.12L513.29 390.48L513.2 390.84L513.09 391.2L512.98 391.56L512.84 391.91L512.7 392.26L512.54 392.6L512.37 392.94L512.19 393.28L511.99 393.6L511.78 393.93L511.56 394.24L511.32 394.55L511.07 394.86L510.96 394.99L509.72 396.38L508.44 397.69L507.11 398.94L505.74 400.12L504.33 401.23L502.89 402.27L501.41 403.24L499.9 404.14L498.36 404.98L496.79 405.74L495.2 406.43L493.59 407.06L491.95 407.61L490.3 408.1L488.63 408.52L486.95 408.86L485.26 409.14L483.56 409.35L481.85 409.49L480.14 409.55L478.43 409.55L476.72 409.48L475.01 409.34L473.31 409.13L471.62 408.85L469.93 408.49L468.26 408.07L466.61 407.58L464.97 407.02L463.35 406.39L461.76 405.68L460.18 404.91L458.64 404.07L457.13 403.15L455.64 402.17L454.19 401.12L452.78 399.99L451.4 398.8L450.07 397.53L448.78 396.19L323.24 260.32L300.58 260.46L175.45 399.29L174.23 400.59L172.96 401.82L171.66 402.98L170.32 404.08L168.94 405.11L167.53 406.07L166.09 406.96L164.61 407.79L163.12 408.55L161.59 409.24L160.05 409.87L158.49 410.42L156.91 410.92L155.31 411.34L153.7 411.7L152.08 411.99L150.45 412.21L148.81 412.37L147.17 412.46L145.53 412.48L143.89 412.43L142.25 412.32L140.62 412.14L138.99 411.9L137.38 411.58L135.77 411.2L134.18 410.76L132.61 410.24L131.05 409.66L129.51 409.02L128 408.3L126.51 407.52L125.05 406.68L123.62 405.76L122.23 404.78L120.86 403.73L119.54 402.62L118.25 401.44L117 400.19L115.8 398.88L115.68 398.74L115.38 398.38L115.09 398.01L114.81 397.63L114.55 397.24L114.31 396.85L114.09 396.45L113.87 396.04L113.68 395.63L113.5 395.21L113.34 394.79L113.19 394.36L113.06 393.93L112.94 393.5L112.84 393.06L112.76 392.62L112.69 392.18L112.64 391.73L112.6 391.29L112.58 390.84L112.58 390.4L112.59 389.95L112.61 389.5L112.66 389.06L112.72 388.62L112.79 388.17L112.88 387.74L112.99 387.3L113.11 386.87L113.24 386.44L113.4 386.01L113.57 385.59L113.75 385.18L113.95 384.77L114.17 384.36L114.4 383.97L114.65 383.58L114.91 383.19L115.19 382.82L115.49 382.45L115.8 382.09L283.16 196.41L283.51 196.03L283.88 195.68L284.26 195.34L284.65 195.02L285.05 194.72L285.46 194.44L285.88 194.18L286.31 193.94L286.74 193.72L287.19 193.52L287.63 193.34L288.09 193.18L288.55 193.03L289.01 192.91L289.48 192.81L289.95 192.72L290.43 192.66L290.9 192.61L291.38 192.58L291.46 192.58L291.64 192.53L292.46 192.34L293.29 192.19L294.12 192.06L294.97 191.97L295.83 191.91L296.7 191.89L322.94 191.73L324.02 191.74L325.1 191.8Z" id="a2sOvyaBV0"></path></defs><g><g><use xlink:href="#a2sOvyaBV0" opacity="1" fill="#c80000" fill-opacity="1"></use></g></g></svg>