<svg class="bk-icon -experiments-building_house" height="24" width="24" viewBox="0 0 24 24" role="presentation" aria-hidden="true"><path d="M19.905,3.607a.5.5,0,0,0-.81,0l-3,4.132a.492.492,0,0,0-.1.293V20.5a.5.5,0,0,0,.5.5h6a.5.5,0,0,0,.5-.5V8.032a.5.5,0,0,0-.095-.293ZM18.5,17.5a.5.5,0,0,1-1,0v-1a.5.5,0,0,1,1,0Zm0-4a.5.5,0,0,1-1,0v-1a.5.5,0,0,1,1,0Zm0-4a.5.5,0,0,1-1,0v-1a.5.5,0,0,1,1,0Zm3,8a.5.5,0,0,1-1,0v-1a.5.5,0,0,1,1,0Zm0-4a.5.5,0,0,1-1,0v-1a.5.5,0,0,1,1,0Zm0-4a.5.5,0,0,1-1,0v-1a.5.5,0,0,1,1,0Z"></path><path d="M14.5,7.5h-7A.5.5,0,0,0,7,8v5.5a.5.5,0,0,0,.5.5h3a1.5,1.5,0,0,1,1.2.6l2.85,3.8a.25.25,0,0,0,.45-.15V8A.5.5,0,0,0,14.5,7.5Z"></path><path d="M10.889,18.351a.5.5,0,0,0-.8,0L8.2,20.805a.5.5,0,0,1-.4.2H1.5a.5.5,0,0,0-.5.5v2a.5.5,0,0,0,.5.5h11a.5.5,0,0,0,.5-.5V21.333a.5.5,0,0,0-.1-.3Z"></path><path d="M10.9,15.2a.534.534,0,0,0-.4-.2h-7a.5.5,0,0,0-.4.2l-3,4a.5.5,0,0,0,.4.8h7a.5.5,0,0,0,.4-.2l2.2-2.934a.5.5,0,0,1,.8,0L13.1,19.8a.5.5,0,1,0,.8-.6Z"></path><path d="M23.9,5.706l-4-5.5A.515.515,0,0,0,19.5,0H10.737a1,1,0,0,0-.774.367l-3.682,4.5A1,1,0,0,0,7.055,6.5h8.19a1,1,0,0,0,.809-.412L19.1,1.906a.5.5,0,0,1,.808,0L23.1,6.294a.5.5,0,0,0,.808-.588Z"></path></svg>